<svg xmlns="http://www.w3.org/2000/svg" xmlns:xlink="http://www.w3.org/1999/xlink" xmlns:lucid="lucid" width="762" height="1420.8"><g transform="translate(-339 -159)" lucid:page-tab-id="YGcM5DNywbTK"><g filter="url(#a)"><path d="M540 180h180v58.53H540z" stroke="#666" fill="#fff"/><use xlink:href="#b" transform="matrix(1,0,0,1,545,185) translate(17.37222222222225 28.387499999999996)"/><use xlink:href="#c" transform="matrix(1,0,0,1,545,185) translate(87.15 28.387499999999996)"/></g><g filter="url(#d)"><path d="M460 298.77h340v58.53H460z" stroke="#666" fill="#fff"/><use xlink:href="#e" transform="matrix(1,0,0,1,465,303.766667) translate(4.122222222222234 28.387499999999996)"/><use xlink:href="#f" transform="matrix(1,0,0,1,465,303.766667) translate(159.34444444444443 28.387499999999996)"/><use xlink:href="#g" transform="matrix(1,0,0,1,465,303.766667) translate(257.01111111111106 28.387499999999996)"/><use xlink:href="#h" transform="matrix(1,0,0,1,465,303.766667) translate(266.9555555555555 28.387499999999996)"/></g><path d="M630 239.53v42.35" stroke="#666" fill="none"/><path d="M630.5 239.55h-1v-.52h1z" fill="#666"/><path d="M630 296.65l-4.64-14.27h9.28z" stroke="#666" fill="#666"/><g filter="url(#i)"><path d="M480 417.53h300v58.54H480z" stroke="#666" fill="#fff"/><use xlink:href="#j" transform="matrix(1,0,0,1,485,422.53333399999997) translate(11.28888888888892 28.387499999999996)"/><use xlink:href="#k" transform="matrix(1,0,0,1,485,422.53333399999997) translate(114.45555555555556 28.387499999999996)"/><use xlink:href="#l" transform="matrix(1,0,0,1,485,422.53333399999997) translate(135.51111111111112 28.387499999999996)"/><use xlink:href="#m" transform="matrix(1,0,0,1,485,422.53333399999997) translate(195.34444444444443 28.387499999999996)"/><use xlink:href="#n" transform="matrix(1,0,0,1,485,422.53333399999997) translate(223.1222222222222 28.387499999999996)"/></g><path d="M630 358.3v42.35" stroke="#666" fill="none"/><path d="M630.5 358.3h-1v-.5h1z" fill="#666"/><path d="M630 415.42l-4.64-14.27h9.28z" stroke="#666" fill="#666"/><g filter="url(#o)"><path d="M520 540.23h220v58.54H520z" stroke="#666" fill="#fff"/><use xlink:href="#p" transform="matrix(1,0,0,1,525,545.2333336666667) translate(17.844444444444463 28.387499999999996)"/><use xlink:href="#q" transform="matrix(1,0,0,1,525,545.2333336666667) translate(146.56666666666666 28.387499999999996)"/></g><path d="M630 477.07v46.28" stroke="#666" fill="none"/><path d="M630.5 477.08h-1v-.5h1z" fill="#666"/><path d="M630 538.12l-4.64-14.27h9.28z" stroke="#666" fill="#666"/><g filter="url(#r)"><path d="M630 662.93l80 60-80 60-80-60z" stroke="#666" fill="#fff"/><use xlink:href="#s" transform="matrix(1,0,0,1,555,667.9333333333334) translate(25.671666666666653 60.45)"/></g><path d="M630 599.77v46.15" stroke="#666" fill="none"/><path d="M630.5 599.78h-1v-.5h1z" fill="#666"/><path d="M630 660.7l-4.64-14.28h9.28z" stroke="#666" fill="#666"/><path d="M548.67 722.93H370V569.5h133.12" stroke="#666" fill="none"/><path d="M549.17 722.93l.66.5h-1.18v-1h1.18z" fill="#666"/><path d="M517.88 569.5l-14.26 4.64v-9.28z" stroke="#666" fill="#666"/><g filter="url(#t)"><path d="M400 680h240v60H400z" stroke="#000" stroke-opacity="0" fill="#fff" fill-opacity="0"/><use xlink:href="#u" transform="matrix(1,0,0,1,405,685) translate(84.35987654320988 28.144444444444446)"/><use xlink:href="#v" transform="matrix(1,0,0,1,405,685) translate(111.970987654321 28.144444444444446)"/></g><path d="M630 784.06v46.06" stroke="#666" fill="none"/><path d="M630.5 784.07h-1v-.9l.5.4.5-.4z" fill="#666"/><path d="M630 844.88l-4.64-14.26h9.28z" stroke="#666" fill="#666"/><g filter="url(#t)"><path d="M540 782.93h240v60H540z" stroke="#000" stroke-opacity="0" fill="#fff" fill-opacity="0"/><use xlink:href="#w" transform="matrix(1,0,0,1,545,787.9333333333334) translate(98.16543209876544 28.144444444444446)"/></g><g filter="url(#x)"><path d="M630 847.1l90 60-90 60-90-60z" stroke="#666" fill="#fff"/><use xlink:href="#y" transform="matrix(1,0,0,1,545,852.0999996666667) translate(36.81055555555557 46.699999999999996)"/><use xlink:href="#z" transform="matrix(1,0,0,1,545,852.0999996666667) translate(98.81055555555557 46.699999999999996)"/><use xlink:href="#A" transform="matrix(1,0,0,1,545,852.0999996666667) translate(41.75500000000001 70.69999999999999)"/></g><g filter="url(#B)"><path d="M840 692.33h240v61.2H840z" stroke="#666" fill="#fff"/><use xlink:href="#p" transform="matrix(1,0,0,1,845,697.3333333333334) translate(3.400000000000034 28.949999999999996)"/><use xlink:href="#C" transform="matrix(1,0,0,1,845,697.3333333333334) translate(132.12222222222223 28.949999999999996)"/><use xlink:href="#q" transform="matrix(1,0,0,1,845,697.3333333333334) translate(181.01111111111112 28.949999999999996)"/></g><path d="M721.4 907.1H960V770.42" stroke="#666" fill="none"/><path d="M721.4 907.6h-1.25l.75-.5-.75-.5h1.26z" fill="#666"/><path d="M960 755.65l4.64 14.27h-9.28z" stroke="#666" fill="#666"/><path d="M839 722.93H727.22" stroke="#666" fill="none"/><path d="M839.5 723.43h-.5v-1h.5z" fill="#666"/><path d="M712.45 722.93l14.27-4.63v9.27z" stroke="#666" fill="#666"/><g filter="url(#t)"><path d="M640 860h240v60H640z" stroke="#000" stroke-opacity="0" fill="#fff" fill-opacity="0"/><use xlink:href="#D" transform="matrix(1,0,0,1,645,865) translate(99.48333333333333 28.144444444444446)"/></g><g filter="url(#E)"><path d="M550 1020h160v61.2H550z" stroke="#666" fill="#fff"/><use xlink:href="#F" transform="matrix(1,0,0,1,555,1025) translate(26.1777777777778 28.949999999999996)"/><use xlink:href="#n" transform="matrix(1,0,0,1,555,1025) translate(68.23333333333335 28.949999999999996)"/></g><path d="M630 968.2v34.92" stroke="#666" fill="none"/><path d="M630 967.7l.5-.33v.84h-1v-.83z" fill="#666"/><path d="M630 1017.88l-4.64-14.26h9.28z" stroke="#666" fill="#666"/><g filter="url(#t)"><path d="M540 960h240v60H540z" stroke="#000" stroke-opacity="0" fill="#fff" fill-opacity="0"/><use xlink:href="#G" transform="matrix(1,0,0,1,545,965) translate(102.05432098765432 28.144444444444446)"/></g><g filter="url(#r)"><path d="M630 1140l80 60-80 60-80-60z" stroke="#666" fill="#fff"/><use xlink:href="#s" transform="matrix(1,0,0,1,555,1145) translate(25.671666666666653 60.45)"/></g><g filter="url(#H)"><path d="M630 1318.8l110 60-110 60-110-60z" stroke="#666" fill="#fff"/><use xlink:href="#I" transform="matrix(1,0,0,1,525,1323.8) translate(28.504999999999992 53.575)"/><use xlink:href="#J" transform="matrix(1,0,0,1,525,1323.8) translate(132.72722222222222 53.575)"/><use xlink:href="#K" transform="matrix(1,0,0,1,525,1323.8) translate(62.282777777777774 77.575)"/></g><g filter="url(#L)"><path d="M540 1497.6h180v61.2H540z" stroke="#666" fill="#fff"/><use xlink:href="#M" transform="matrix(1,0,0,1,545,1502.6) translate(38.40000000000002 22.449999999999996)"/><use xlink:href="#N" transform="matrix(1,0,0,1,545,1502.6) translate(22.833333333333353 46.44999999999999)"/></g><path d="M630 1439.87v40.85" stroke="#666" fill="none"/><path d="M630.5 1439.88h-1v-.78l.5.27.5-.27z" fill="#666"/><path d="M630 1495.48l-4.64-14.26h9.28z" stroke="#666" fill="#666"/><path d="M630.5 1301.85h-1v-40.72h1z" fill="#666"/><path d="M630.5 1261.14h-1v-.9l.5.38.5-.37zM630 1316.6l-4.64-14.25h9.28z" fill="#666"/><path d="M630 1318.23l-5.32-16.38h10.64zm-3.95-15.38L630 1315l3.95-12.15z" fill="#666"/><use xlink:href="#O" transform="matrix(1,0,0,1,630,1278.494394755618) translate(-5.595 15.644444444444446)"/><path d="M630 1082.2v40.8" stroke="#666" fill="none"/><path d="M630.5 1082.2h-1v-.5h1z" fill="#666"/><path d="M630 1137.76l-4.64-14.27h9.28z" stroke="#666" fill="#666"/><g filter="url(#t)"><path d="M540 1260h240v60H540z" stroke="#000" stroke-opacity="0" fill="#fff" fill-opacity="0"/><use xlink:href="#w" transform="matrix(1,0,0,1,545,1265) translate(98.16543209876544 28.144444444444446)"/></g><g filter="url(#t)"><path d="M540 1437.6h240v60H540z" stroke="#000" stroke-opacity="0" fill="#fff" fill-opacity="0"/><use xlink:href="#w" transform="matrix(1,0,0,1,545,1442.6) translate(98.16543209876544 28.144444444444446)"/></g><path d="M503.12 570H370.5v629.5h178.17v1H369.5V569h133.62z" fill="#666"/><path d="M549.17 1200l.66.5h-1.18v-1h1.18zM517.88 569.5l-14.26 4.64v-9.28z" fill="#666"/><path d="M519.5 569.5l-16.38 5.32v-10.64zm-15.38 3.95l12.14-3.95-12.14-3.95z" fill="#666"/><use xlink:href="#P" transform="matrix(1,0,0,1,370,888.6500001666667) translate(-5.595 15.644444444444446)"/><path d="M503.12 570H370.5v808.3h147.96v1H369.5V569h133.62z" fill="#666"/><path d="M518.96 1378.8l.9.5h-1.42v-1h1.43zM517.88 569.5l-14.26 4.64v-9.28z" fill="#666"/><path d="M519.5 569.5l-16.38 5.32v-10.64zm-15.38 3.95l12.14-3.95-12.14-3.95z" fill="#666"/><use xlink:href="#Q" transform="matrix(1,0,0,1,370,962.9445849964108) translate(-5.595 15.644444444444446)"/><g filter="url(#t)"><path d="M400 1160h240v60H400z" stroke="#000" stroke-opacity="0" fill="#fff" fill-opacity="0"/><use xlink:href="#u" transform="matrix(1,0,0,1,405,1165) translate(84.35987654320988 28.144444444444446)"/><use xlink:href="#v" transform="matrix(1,0,0,1,405,1165) translate(111.970987654321 28.144444444444446)"/></g><g filter="url(#t)"><path d="M360 1340h240v60H360z" stroke="#000" stroke-opacity="0" fill="#fff" fill-opacity="0"/><use xlink:href="#u" transform="matrix(1,0,0,1,365,1345) translate(84.35987654320988 28.144444444444446)"/><use xlink:href="#v" transform="matrix(1,0,0,1,365,1345) translate(111.970987654321 28.144444444444446)"/></g><defs><path fill="#666" d="M30 0v-248h187v28H63v79h144v27H63v87h162V0H30" id="R"/><path fill="#666" d="M135-143c-3-34-86-38-87 0 15 53 115 12 119 90S17 21 10-45l28-5c4 36 97 45 98 0-10-56-113-15-118-90-4-57 82-63 122-42 12 7 21 19 24 35" id="S"/><path fill="#666" d="M96-169c-40 0-48 33-48 73s9 75 48 75c24 0 41-14 43-38l32 2c-6 37-31 61-74 61-59 0-76-41-82-99-10-93 101-131 147-64 4 7 5 14 7 22l-32 3c-4-21-16-35-41-35" id="T"/><path fill="#666" d="M100-194c62-1 85 37 85 99 1 63-27 99-86 99S16-35 15-95c0-66 28-99 85-99zM99-20c44 1 53-31 53-75 0-43-8-75-51-75s-53 32-53 75 10 74 51 75" id="U"/><path fill="#666" d="M24 0v-261h32V0H24" id="V"/><path fill="#666" d="M24-231v-30h32v30H24zM24 0v-190h32V0H24" id="W"/><path fill="#666" d="M114-163C36-179 61-72 57 0H25l-1-190h30c1 12-1 29 2 39 6-27 23-49 58-41v29" id="X"/><g id="b"><use transform="matrix(0.05555555555555554,0,0,0.05555555555555554,0,0)" xlink:href="#R"/><use transform="matrix(0.05555555555555554,0,0,0.05555555555555554,13.333333333333329,0)" xlink:href="#S"/><use transform="matrix(0.05555555555555554,0,0,0.05555555555555554,23.333333333333325,0)" xlink:href="#T"/><use transform="matrix(0.05555555555555554,0,0,0.05555555555555554,33.33333333333332,0)" xlink:href="#U"/><use transform="matrix(0.05555555555555554,0,0,0.05555555555555554,44.44444444444443,0)" xlink:href="#V"/><use transform="matrix(0.05555555555555554,0,0,0.05555555555555554,48.833333333333314,0)" xlink:href="#V"/><use transform="matrix(0.05555555555555554,0,0,0.05555555555555554,53.2222222222222,0)" xlink:href="#W"/><use transform="matrix(0.05555555555555554,0,0,0.05555555555555554,57.61111111111108,0)" xlink:href="#X"/></g><path fill="#666" d="M59-47c-2 24 18 29 38 22v24C64 9 27 4 27-40v-127H5v-23h24l9-43h21v43h35v23H59v120" id="Y"/><path fill="#666" d="M100-194c63 0 86 42 84 106H49c0 40 14 67 53 68 26 1 43-12 49-29l28 8c-11 28-37 45-77 45C44 4 14-33 15-96c1-61 26-98 85-98zm52 81c6-60-76-77-97-28-3 7-6 17-6 28h103" id="Z"/><path fill="#666" d="M115-194c53 0 69 39 70 98 0 66-23 100-70 100C84 3 66-7 56-30L54 0H23l1-261h32v101c10-23 28-34 59-34zm-8 174c40 0 45-34 45-75 0-40-5-75-45-74-42 0-51 32-51 76 0 43 10 73 51 73" id="aa"/><path fill="#666" d="M141-36C126-15 110 5 73 4 37 3 15-17 15-53c-1-64 63-63 125-63 3-35-9-54-41-54-24 1-41 7-42 31l-33-3c5-37 33-52 76-52 45 0 72 20 72 64v82c-1 20 7 32 28 27v20c-31 9-61-2-59-35zM48-53c0 20 12 33 32 33 41-3 63-29 60-74-43 2-92-5-92 41" id="ab"/><g id="c"><use transform="matrix(0.05555555555555554,0,0,0.05555555555555554,0,0)" xlink:href="#Y"/><use transform="matrix(0.05555555555555554,0,0,0.05555555555555554,5.555555555555554,0)" xlink:href="#X"/><use transform="matrix(0.05555555555555554,0,0,0.05555555555555554,12.166666666666663,0)" xlink:href="#Z"/><use transform="matrix(0.05555555555555554,0,0,0.05555555555555554,23.27777777777777,0)" xlink:href="#aa"/><use transform="matrix(0.05555555555555554,0,0,0.05555555555555554,34.38888888888888,0)" xlink:href="#ab"/><use transform="matrix(0.05555555555555554,0,0,0.05555555555555554,45.499999999999986,0)" xlink:href="#V"/><use transform="matrix(0.05555555555555554,0,0,0.05555555555555554,49.88888888888887,0)" xlink:href="#V"/></g><filter id="a" filterUnits="objectBoundingBox" x="-.06" y="-.07" width="1.11" height="1.34"><feOffset result="offOut" in="SourceAlpha" dy="6"/><feGaussianBlur result="blurOut" in="offOut" stdDeviation="5"/><feColorMatrix result="colorOut" in="blurOut" values="0 0 0 0 0 0 0 0 0 0 0 0 0 0 0 0 0 0 0.16862745098039217 0"/><feBlend in="SourceGraphic" in2="colorOut"/></filter><path fill="#666" d="M30-248c118-7 216 8 213 122C240-48 200 0 122 0H30v-248zM63-27c89 8 146-16 146-99s-60-101-146-95v194" id="ac"/><path fill="#666" d="M85-194c31 0 48 13 60 33l-1-100h32l1 261h-30c-2-10 0-23-3-31C134-8 116 4 85 4 32 4 16-35 15-94c0-66 23-100 70-100zm9 24c-40 0-46 34-46 75 0 40 6 74 45 74 42 0 51-32 51-76 0-42-9-74-50-73" id="ad"/><path fill="#666" d="M0 4l72-265h28L28 4H0" id="ae"/><path fill="#666" d="M205 0l-28-72H64L36 0H1l101-248h38L239 0h-34zm-38-99l-47-123c-12 45-31 82-46 123h93" id="af"/><path fill="#666" d="M115-194c55 1 70 41 70 98S169 2 115 4C84 4 66-9 55-30l1 105H24l-1-265h31l2 30c10-21 28-34 59-34zm-8 174c40 0 45-34 45-75s-6-73-45-74c-42 0-51 32-51 76 0 43 10 73 51 73" id="ag"/><path fill="#666" d="M117-194c89-4 53 116 60 194h-32v-121c0-31-8-49-39-48C34-167 62-67 57 0H25l-1-190h30c1 10-1 24 2 32 11-22 29-35 61-36" id="ah"/><g id="e"><use transform="matrix(0.05555555555555554,0,0,0.05555555555555554,0,0)" xlink:href="#ac"/><use transform="matrix(0.05555555555555554,0,0,0.05555555555555554,14.388888888888884,0)" xlink:href="#Z"/><use transform="matrix(0.05555555555555554,0,0,0.05555555555555554,25.499999999999993,0)" xlink:href="#T"/><use transform="matrix(0.05555555555555554,0,0,0.05555555555555554,35.499999999999986,0)" xlink:href="#W"/><use transform="matrix(0.05555555555555554,0,0,0.05555555555555554,39.88888888888887,0)" xlink:href="#ad"/><use transform="matrix(0.05555555555555554,0,0,0.05555555555555554,50.99999999999998,0)" xlink:href="#W"/><use transform="matrix(0.05555555555555554,0,0,0.05555555555555554,55.388888888888864,0)" xlink:href="#X"/><use transform="matrix(0.05555555555555554,0,0,0.05555555555555554,61.99999999999997,0)" xlink:href="#ae"/><use transform="matrix(0.05555555555555554,0,0,0.05555555555555554,67.55555555555553,0)" xlink:href="#af"/><use transform="matrix(0.05555555555555554,0,0,0.05555555555555554,80.88888888888886,0)" xlink:href="#ag"/><use transform="matrix(0.05555555555555554,0,0,0.05555555555555554,91.99999999999997,0)" xlink:href="#X"/><use transform="matrix(0.05555555555555554,0,0,0.05555555555555554,98.61111111111109,0)" xlink:href="#Z"/><use transform="matrix(0.05555555555555554,0,0,0.05555555555555554,109.7222222222222,0)" xlink:href="#ah"/><use transform="matrix(0.05555555555555554,0,0,0.05555555555555554,120.83333333333333,0)" xlink:href="#ad"/><use transform="matrix(0.05555555555555554,0,0,0.05555555555555554,131.94444444444443,0)" xlink:href="#X"/><use transform="matrix(0.05555555555555554,0,0,0.05555555555555554,138.55555555555554,0)" xlink:href="#Z"/></g><path fill="#666" d="M177-190C167-65 218 103 67 71c-23-6-38-20-44-43l32-5c15 47 100 32 89-28v-30C133-14 115 1 83 1 29 1 15-40 15-95c0-56 16-97 71-98 29-1 48 16 59 35 1-10 0-23 2-32h30zM94-22c36 0 50-32 50-73 0-42-14-75-50-75-39 0-46 34-46 75s6 73 46 73" id="ai"/><path fill="#666" d="M84 4C-5 8 30-112 23-190h32v120c0 31 7 50 39 49 72-2 45-101 50-169h31l1 190h-30c-1-10 1-25-2-33-11 22-28 36-60 37" id="aj"/><g id="f"><use transform="matrix(0.05555555555555554,0,0,0.05555555555555554,0,0)" xlink:href="#V"/><use transform="matrix(0.05555555555555554,0,0,0.05555555555555554,4.3888888888888875,0)" xlink:href="#V"/><use transform="matrix(0.05555555555555554,0,0,0.05555555555555554,8.777777777777775,0)" xlink:href="#Z"/><use transform="matrix(0.05555555555555554,0,0,0.05555555555555554,19.888888888888882,0)" xlink:href="#ah"/><use transform="matrix(0.05555555555555554,0,0,0.05555555555555554,30.99999999999999,0)" xlink:href="#ai"/><use transform="matrix(0.05555555555555554,0,0,0.05555555555555554,42.1111111111111,0)" xlink:href="#aj"/><use transform="matrix(0.05555555555555554,0,0,0.05555555555555554,53.22222222222221,0)" xlink:href="#ab"/><use transform="matrix(0.05555555555555554,0,0,0.05555555555555554,64.33333333333331,0)" xlink:href="#Y"/><use transform="matrix(0.05555555555555554,0,0,0.05555555555555554,69.88888888888887,0)" xlink:href="#ai"/><use transform="matrix(0.05555555555555554,0,0,0.05555555555555554,80.99999999999997,0)" xlink:href="#Z"/></g><use transform="matrix(0.05555555555555554,0,0,0.05555555555555554,0,0)" xlink:href="#W" id="g"/><g id="h"><use transform="matrix(0.05555555555555554,0,0,0.05555555555555554,0,0)" xlink:href="#Z"/><use transform="matrix(0.05555555555555554,0,0,0.05555555555555554,11.111111111111107,0)" xlink:href="#W"/><use transform="matrix(0.05555555555555554,0,0,0.05555555555555554,15.499999999999995,0)" xlink:href="#ah"/><use transform="matrix(0.05555555555555554,0,0,0.05555555555555554,26.6111111111111,0)" xlink:href="#Z"/><use transform="matrix(0.05555555555555554,0,0,0.05555555555555554,37.72222222222221,0)" xlink:href="#S"/></g><filter id="d" filterUnits="objectBoundingBox" x="-.03" y="-.07" width="1.06" height="1.34"><feOffset result="offOut" in="SourceAlpha" dy="6"/><feGaussianBlur result="blurOut" in="offOut" stdDeviation="5"/><feColorMatrix result="colorOut" in="blurOut" values="0 0 0 0 0 0 0 0 0 0 0 0 0 0 0 0 0 0 0.16862745098039217 0"/><feBlend in="SourceGraphic" in2="colorOut"/></filter><g id="j"><use transform="matrix(0.05555555555555554,0,0,0.05555555555555554,0,0)" xlink:href="#R"/><use transform="matrix(0.05555555555555554,0,0,0.05555555555555554,13.333333333333329,0)" xlink:href="#S"/><use transform="matrix(0.05555555555555554,0,0,0.05555555555555554,23.333333333333325,0)" xlink:href="#Y"/><use transform="matrix(0.05555555555555554,0,0,0.05555555555555554,28.88888888888888,0)" xlink:href="#X"/><use transform="matrix(0.05555555555555554,0,0,0.05555555555555554,35.499999999999986,0)" xlink:href="#aj"/><use transform="matrix(0.05555555555555554,0,0,0.05555555555555554,46.61111111111109,0)" xlink:href="#T"/><use transform="matrix(0.05555555555555554,0,0,0.05555555555555554,56.611111111111086,0)" xlink:href="#Y"/><use transform="matrix(0.05555555555555554,0,0,0.05555555555555554,62.16666666666665,0)" xlink:href="#aj"/><use transform="matrix(0.05555555555555554,0,0,0.05555555555555554,73.27777777777774,0)" xlink:href="#X"/><use transform="matrix(0.05555555555555554,0,0,0.05555555555555554,79.88888888888886,0)" xlink:href="#ab"/><use transform="matrix(0.05555555555555554,0,0,0.05555555555555554,90.99999999999997,0)" xlink:href="#X"/></g><g id="k"><use transform="matrix(0.05555555555555554,0,0,0.05555555555555554,0,0)" xlink:href="#Z"/><use transform="matrix(0.05555555555555554,0,0,0.05555555555555554,11.111111111111107,0)" xlink:href="#V"/></g><g id="l"><use transform="matrix(0.05555555555555554,0,0,0.05555555555555554,0,0)" xlink:href="#Y"/><use transform="matrix(0.05555555555555554,0,0,0.05555555555555554,5.555555555555554,0)" xlink:href="#X"/><use transform="matrix(0.05555555555555554,0,0,0.05555555555555554,12.166666666666663,0)" xlink:href="#Z"/><use transform="matrix(0.05555555555555554,0,0,0.05555555555555554,23.27777777777777,0)" xlink:href="#aa"/><use transform="matrix(0.05555555555555554,0,0,0.05555555555555554,34.38888888888888,0)" xlink:href="#ab"/><use transform="matrix(0.05555555555555554,0,0,0.05555555555555554,45.499999999999986,0)" xlink:href="#V"/><use transform="matrix(0.05555555555555554,0,0,0.05555555555555554,49.88888888888887,0)" xlink:href="#V"/></g><g id="m"><use transform="matrix(0.05555555555555554,0,0,0.05555555555555554,0,0)" xlink:href="#Z"/><use transform="matrix(0.05555555555555554,0,0,0.05555555555555554,11.111111111111107,0)" xlink:href="#ah"/></g><g id="n"><use transform="matrix(0.05555555555555554,0,0,0.05555555555555554,0,0)" xlink:href="#ag"/><use transform="matrix(0.05555555555555554,0,0,0.05555555555555554,11.111111111111107,0)" xlink:href="#ab"/><use transform="matrix(0.05555555555555554,0,0,0.05555555555555554,22.222222222222214,0)" xlink:href="#X"/><use transform="matrix(0.05555555555555554,0,0,0.05555555555555554,28.833333333333325,0)" xlink:href="#Y"/><use transform="matrix(0.05555555555555554,0,0,0.05555555555555554,34.38888888888887,0)" xlink:href="#S"/></g><filter id="i" filterUnits="objectBoundingBox" x="-.03" y="-.07" width="1.07" height="1.34"><feOffset result="offOut" in="SourceAlpha" dy="6"/><feGaussianBlur result="blurOut" in="offOut" stdDeviation="5"/><feColorMatrix result="colorOut" in="blurOut" values="0 0 0 0 0 0 0 0 0 0 0 0 0 0 0 0 0 0 0.16862745098039217 0"/><feBlend in="SourceGraphic" in2="colorOut"/></filter><path fill="#666" d="M108 0H70L1-190h34L89-25l56-165h34" id="ak"/><g id="p"><use transform="matrix(0.05555555555555554,0,0,0.05555555555555554,0,0)" xlink:href="#ac"/><use transform="matrix(0.05555555555555554,0,0,0.05555555555555554,14.388888888888884,0)" xlink:href="#Z"/><use transform="matrix(0.05555555555555554,0,0,0.05555555555555554,25.499999999999993,0)" xlink:href="#S"/><use transform="matrix(0.05555555555555554,0,0,0.05555555555555554,35.499999999999986,0)" xlink:href="#Z"/><use transform="matrix(0.05555555555555554,0,0,0.05555555555555554,46.61111111111109,0)" xlink:href="#ah"/><use transform="matrix(0.05555555555555554,0,0,0.05555555555555554,57.72222222222221,0)" xlink:href="#ak"/><use transform="matrix(0.05555555555555554,0,0,0.05555555555555554,67.7222222222222,0)" xlink:href="#U"/><use transform="matrix(0.05555555555555554,0,0,0.05555555555555554,78.83333333333331,0)" xlink:href="#V"/><use transform="matrix(0.05555555555555554,0,0,0.05555555555555554,83.2222222222222,0)" xlink:href="#aj"/><use transform="matrix(0.05555555555555554,0,0,0.05555555555555554,94.33333333333331,0)" xlink:href="#ag"/><use transform="matrix(0.05555555555555554,0,0,0.05555555555555554,105.44444444444443,0)" xlink:href="#ab"/><use transform="matrix(0.05555555555555554,0,0,0.05555555555555554,116.55555555555554,0)" xlink:href="#X"/></g><g id="q"><use transform="matrix(0.05555555555555554,0,0,0.05555555555555554,0,0)" xlink:href="#ag"/><use transform="matrix(0.05555555555555554,0,0,0.05555555555555554,11.111111111111107,0)" xlink:href="#ab"/><use transform="matrix(0.05555555555555554,0,0,0.05555555555555554,22.222222222222214,0)" xlink:href="#X"/><use transform="matrix(0.05555555555555554,0,0,0.05555555555555554,28.833333333333325,0)" xlink:href="#Y"/></g><filter id="o" filterUnits="objectBoundingBox" x="-.05" y="-.07" width="1.09" height="1.34"><feOffset result="offOut" in="SourceAlpha" dy="6"/><feGaussianBlur result="blurOut" in="offOut" stdDeviation="5"/><feColorMatrix result="colorOut" in="blurOut" values="0 0 0 0 0 0 0 0 0 0 0 0 0 0 0 0 0 0 0.16862745098039217 0"/><feBlend in="SourceGraphic" in2="colorOut"/></filter><path fill="#666" d="M212-179c-10-28-35-45-73-45-59 0-87 40-87 99 0 60 29 101 89 101 43 0 62-24 78-52l27 14C228-24 195 4 139 4 59 4 22-46 18-125c-6-104 99-153 187-111 19 9 31 26 39 46" id="al"/><path fill="#666" d="M210-169c-67 3-38 105-44 169h-31v-121c0-29-5-50-35-48C34-165 62-65 56 0H25l-1-190h30c1 10-1 24 2 32 10-44 99-50 107 0 11-21 27-35 58-36 85-2 47 119 55 194h-31v-121c0-29-5-49-35-48" id="am"/><g id="s"><use transform="matrix(0.05555555555555555,0,0,0.05555555555555555,0,0)" xlink:href="#al"/><use transform="matrix(0.05555555555555555,0,0,0.05555555555555555,14.388888888888888,0)" xlink:href="#U"/><use transform="matrix(0.05555555555555555,0,0,0.05555555555555555,25.5,0)" xlink:href="#am"/><use transform="matrix(0.05555555555555555,0,0,0.05555555555555555,42.111111111111114,0)" xlink:href="#ag"/><use transform="matrix(0.05555555555555555,0,0,0.05555555555555555,53.22222222222223,0)" xlink:href="#X"/><use transform="matrix(0.05555555555555555,0,0,0.05555555555555555,59.83333333333334,0)" xlink:href="#U"/><use transform="matrix(0.05555555555555555,0,0,0.05555555555555555,70.94444444444446,0)" xlink:href="#ak"/><use transform="matrix(0.05555555555555555,0,0,0.05555555555555555,80.94444444444446,0)" xlink:href="#ab"/><use transform="matrix(0.05555555555555555,0,0,0.05555555555555555,92.05555555555557,0)" xlink:href="#X"/></g><filter id="r" filterUnits="objectBoundingBox" x="-.06" y="-.03" width="1.13" height="1.17"><feOffset result="offOut" in="SourceAlpha" dy="6"/><feGaussianBlur result="blurOut" in="offOut" stdDeviation="5"/><feColorMatrix result="colorOut" in="blurOut" values="0 0 0 0 0 0 0 0 0 0 0 0 0 0 0 0 0 0 0.16862745098039217 0"/><feBlend in="SourceGraphic" in2="colorOut"/></filter><path fill="#666" d="M190 0L58-211 59 0H30v-248h39L202-35l-2-213h31V0h-41" id="an"/><path fill="#666" d="M140-251c81 0 123 46 123 126C263-46 219 4 140 4 59 4 17-45 17-125s42-126 123-126zm0 227c63 0 89-41 89-101s-29-99-89-99c-61 0-89 39-89 99S79-25 140-24" id="ao"/><g id="u"><use transform="matrix(0.04320987654320988,0,0,0.04320987654320988,0,0)" xlink:href="#an"/><use transform="matrix(0.04320987654320988,0,0,0.04320987654320988,11.19135802469136,0)" xlink:href="#ao"/></g><path fill="#666" d="M194 0L95-120 63-95V0H30v-248h33v124l119-124h40L117-140 236 0h-42" id="ap"/><g id="v"><use transform="matrix(0.04320987654320988,0,0,0.04320987654320988,0,0)" xlink:href="#ao"/><use transform="matrix(0.04320987654320988,0,0,0.04320987654320988,12.098765432098766,0)" xlink:href="#ap"/></g><filter id="t" filterUnits="objectBoundingBox" x="-.04" y="-.07" width="1.08" height="1.33"><feOffset result="offOut" in="SourceAlpha" dy="6"/><feGaussianBlur result="blurOut" in="offOut" stdDeviation="5"/><feColorMatrix result="colorOut" in="blurOut" values="0 0 0 0 0 0 0 0 0 0 0 0 0 0 0 0 0 0 0.16862745098039217 0"/><feBlend in="SourceGraphic" in2="colorOut"/></filter><g id="w"><use transform="matrix(0.04320987654320988,0,0,0.04320987654320988,0,0)" xlink:href="#ao"/><use transform="matrix(0.04320987654320988,0,0,0.04320987654320988,12.098765432098766,0)" xlink:href="#ap"/></g><path fill="#666" d="M99-269c9-18 26-28 38-43h37v5l-55 38H99zM232-93c-1 65-40 97-104 97C67 4 28-28 28-90v-158h33c8 89-33 224 67 224 102 0 64-133 71-224h33v155" id="aq"/><g id="y"><use transform="matrix(0.05555555555555554,0,0,0.05555555555555554,0,0)" xlink:href="#aq"/><use transform="matrix(0.05555555555555554,0,0,0.05555555555555554,14.388888888888884,0)" xlink:href="#V"/><use transform="matrix(0.05555555555555554,0,0,0.05555555555555554,18.77777777777777,0)" xlink:href="#Y"/><use transform="matrix(0.05555555555555554,0,0,0.05555555555555554,24.333333333333325,0)" xlink:href="#W"/><use transform="matrix(0.05555555555555554,0,0,0.05555555555555554,28.722222222222214,0)" xlink:href="#am"/><use transform="matrix(0.05555555555555554,0,0,0.05555555555555554,45.33333333333332,0)" xlink:href="#ab"/></g><g id="z"><use transform="matrix(0.05555555555555554,0,0,0.05555555555555554,0,0)" xlink:href="#ag"/><use transform="matrix(0.05555555555555554,0,0,0.05555555555555554,11.111111111111107,0)" xlink:href="#ab"/><use transform="matrix(0.05555555555555554,0,0,0.05555555555555554,22.222222222222214,0)" xlink:href="#X"/><use transform="matrix(0.05555555555555554,0,0,0.05555555555555554,28.833333333333325,0)" xlink:href="#Y"/></g><path fill="#666" d="M9 0v-24l116-142H16v-24h144v24L44-24h123V0H9" id="ar"/><g id="A"><use transform="matrix(0.05555555555555554,0,0,0.05555555555555554,0,0)" xlink:href="#X"/><use transform="matrix(0.05555555555555554,0,0,0.05555555555555554,6.611111111111109,0)" xlink:href="#Z"/><use transform="matrix(0.05555555555555554,0,0,0.05555555555555554,17.722222222222214,0)" xlink:href="#ab"/><use transform="matrix(0.05555555555555554,0,0,0.05555555555555554,28.833333333333325,0)" xlink:href="#V"/><use transform="matrix(0.05555555555555554,0,0,0.05555555555555554,33.22222222222221,0)" xlink:href="#W"/><use transform="matrix(0.05555555555555554,0,0,0.05555555555555554,37.61111111111109,0)" xlink:href="#Y"/><use transform="matrix(0.05555555555555554,0,0,0.05555555555555554,43.16666666666664,0)" xlink:href="#ar"/><use transform="matrix(0.05555555555555554,0,0,0.05555555555555554,53.16666666666664,0)" xlink:href="#ab"/><use transform="matrix(0.05555555555555554,0,0,0.05555555555555554,64.27777777777774,0)" xlink:href="#ad"/><use transform="matrix(0.05555555555555554,0,0,0.05555555555555554,75.38888888888886,0)" xlink:href="#ab"/></g><filter id="x" filterUnits="objectBoundingBox" x="-.06" y="-.03" width="1.11" height="1.17"><feOffset result="offOut" in="SourceAlpha" dy="6"/><feGaussianBlur result="blurOut" in="offOut" stdDeviation="5"/><feColorMatrix result="colorOut" in="blurOut" values="0 0 0 0 0 0 0 0 0 0 0 0 0 0 0 0 0 0 0.16862745098039217 0"/><feBlend in="SourceGraphic" in2="colorOut"/></filter><g id="C"><use transform="matrix(0.05555555555555554,0,0,0.05555555555555554,0,0)" xlink:href="#ah"/><use transform="matrix(0.05555555555555554,0,0,0.05555555555555554,11.111111111111107,0)" xlink:href="#U"/><use transform="matrix(0.05555555555555554,0,0,0.05555555555555554,22.222222222222214,0)" xlink:href="#ak"/><use transform="matrix(0.05555555555555554,0,0,0.05555555555555554,32.222222222222214,0)" xlink:href="#ab"/></g><filter id="B" filterUnits="objectBoundingBox" x="-.04" y="-.07" width="1.08" height="1.33"><feOffset result="offOut" in="SourceAlpha" dy="6"/><feGaussianBlur result="blurOut" in="offOut" stdDeviation="5"/><feColorMatrix result="colorOut" in="blurOut" values="0 0 0 0 0 0 0 0 0 0 0 0 0 0 0 0 0 0 0.16862745098039217 0"/><feBlend in="SourceGraphic" in2="colorOut"/></filter><g id="D"><use transform="matrix(0.04320987654320988,0,0,0.04320987654320988,0,0)" xlink:href="#an"/><use transform="matrix(0.04320987654320988,0,0,0.04320987654320988,11.19135802469136,0)" xlink:href="#U"/></g><path fill="#666" d="M232-93c-1 65-40 97-104 97C67 4 28-28 28-90v-158h33c8 89-33 224 67 224 102 0 64-133 71-224h33v155" id="as"/><g id="F"><use transform="matrix(0.05555555555555554,0,0,0.05555555555555554,0,0)" xlink:href="#as"/><use transform="matrix(0.05555555555555554,0,0,0.05555555555555554,14.388888888888884,0)" xlink:href="#ah"/><use transform="matrix(0.05555555555555554,0,0,0.05555555555555554,25.499999999999993,0)" xlink:href="#W"/><use transform="matrix(0.05555555555555554,0,0,0.05555555555555554,29.88888888888888,0)" xlink:href="#X"/></g><filter id="E" filterUnits="objectBoundingBox" x="-.06" y="-.07" width="1.13" height="1.33"><feOffset result="offOut" in="SourceAlpha" dy="6"/><feGaussianBlur result="blurOut" in="offOut" stdDeviation="5"/><feColorMatrix result="colorOut" in="blurOut" values="0 0 0 0 0 0 0 0 0 0 0 0 0 0 0 0 0 0 0.16862745098039217 0"/><feBlend in="SourceGraphic" in2="colorOut"/></filter><path fill="#666" d="M185-189c-5-48-123-54-124 2 14 75 158 14 163 119 3 78-121 87-175 55-17-10-28-26-33-46l33-7c5 56 141 63 141-1 0-78-155-14-162-118-5-82 145-84 179-34 5 7 8 16 11 25" id="at"/><path fill="#666" d="M34 0v-190h32V0H34zM24-211c8-23 27-35 38-54h36v5l-58 49H24" id="au"/><g id="G"><use transform="matrix(0.04320987654320988,0,0,0.04320987654320988,0,0)" xlink:href="#at"/><use transform="matrix(0.04320987654320988,0,0,0.04320987654320988,10.370370370370372,0)" xlink:href="#au"/></g><g id="I"><use transform="matrix(0.05555555555555555,0,0,0.05555555555555555,0,0)" xlink:href="#al"/><use transform="matrix(0.05555555555555555,0,0,0.05555555555555555,14.388888888888888,0)" xlink:href="#U"/><use transform="matrix(0.05555555555555555,0,0,0.05555555555555555,25.5,0)" xlink:href="#am"/><use transform="matrix(0.05555555555555555,0,0,0.05555555555555555,42.111111111111114,0)" xlink:href="#ag"/><use transform="matrix(0.05555555555555555,0,0,0.05555555555555555,53.22222222222223,0)" xlink:href="#X"/><use transform="matrix(0.05555555555555555,0,0,0.05555555555555555,59.83333333333334,0)" xlink:href="#U"/><use transform="matrix(0.05555555555555555,0,0,0.05555555555555555,70.94444444444446,0)" xlink:href="#ak"/><use transform="matrix(0.05555555555555555,0,0,0.05555555555555555,80.94444444444446,0)" xlink:href="#ab"/><use transform="matrix(0.05555555555555555,0,0,0.05555555555555555,92.05555555555557,0)" xlink:href="#X"/></g><g id="J"><use transform="matrix(0.05555555555555555,0,0,0.05555555555555555,0,0)" xlink:href="#ab"/><use transform="matrix(0.05555555555555555,0,0,0.05555555555555555,11.11111111111111,0)" xlink:href="#V"/><use transform="matrix(0.05555555555555555,0,0,0.05555555555555555,15.5,0)" xlink:href="#Y"/><use transform="matrix(0.05555555555555555,0,0,0.05555555555555555,21.055555555555557,0)" xlink:href="#X"/><use transform="matrix(0.05555555555555555,0,0,0.05555555555555555,27.666666666666668,0)" xlink:href="#Z"/><use transform="matrix(0.05555555555555555,0,0,0.05555555555555555,38.77777777777778,0)" xlink:href="#S"/></g><path fill="#666" d="M141 0L90-78 38 0H4l68-98-65-92h35l48 74 47-74h35l-64 92 68 98h-35" id="av"/><g id="K"><use transform="matrix(0.05555555555555555,0,0,0.05555555555555555,0,0)" xlink:href="#Z"/><use transform="matrix(0.05555555555555555,0,0,0.05555555555555555,11.11111111111111,0)" xlink:href="#av"/><use transform="matrix(0.05555555555555555,0,0,0.05555555555555555,21.11111111111111,0)" xlink:href="#Z"/><use transform="matrix(0.05555555555555555,0,0,0.05555555555555555,32.22222222222222,0)" xlink:href="#am"/><use transform="matrix(0.05555555555555555,0,0,0.05555555555555555,48.83333333333333,0)" xlink:href="#ag"/><use transform="matrix(0.05555555555555555,0,0,0.05555555555555555,59.94444444444444,0)" xlink:href="#V"/><use transform="matrix(0.05555555555555555,0,0,0.05555555555555555,64.33333333333333,0)" xlink:href="#Z"/><use transform="matrix(0.05555555555555555,0,0,0.05555555555555555,75.44444444444444,0)" xlink:href="#S"/></g><filter id="H" filterUnits="objectBoundingBox" x="-.05" y="-.03" width="1.09" height="1.17"><feOffset result="offOut" in="SourceAlpha" dy="6"/><feGaussianBlur result="blurOut" in="offOut" stdDeviation="5"/><feColorMatrix result="colorOut" in="blurOut" values="0 0 0 0 0 0 0 0 0 0 0 0 0 0 0 0 0 0 0.16862745098039217 0"/><feBlend in="SourceGraphic" in2="colorOut"/></filter><g id="M"><use transform="matrix(0.05555555555555554,0,0,0.05555555555555554,0,0)" xlink:href="#af"/><use transform="matrix(0.05555555555555554,0,0,0.05555555555555554,13.333333333333329,0)" xlink:href="#X"/><use transform="matrix(0.05555555555555554,0,0,0.05555555555555554,19.944444444444436,0)" xlink:href="#X"/><use transform="matrix(0.05555555555555554,0,0,0.05555555555555554,26.555555555555543,0)" xlink:href="#U"/><use transform="matrix(0.05555555555555554,0,0,0.05555555555555554,37.66666666666665,0)" xlink:href="#ad"/><use transform="matrix(0.05555555555555554,0,0,0.05555555555555554,48.77777777777776,0)" xlink:href="#U"/><use transform="matrix(0.05555555555555554,0,0,0.05555555555555554,59.88888888888887,0)" xlink:href="#ah"/><use transform="matrix(0.05555555555555554,0,0,0.05555555555555554,70.99999999999997,0)" xlink:href="#W"/><use transform="matrix(0.05555555555555554,0,0,0.05555555555555554,75.38888888888886,0)" xlink:href="#X"/></g><path fill="#666" d="M100-194c62-1 85 37 85 99 1 63-27 99-86 99S16-35 15-95c0-66 28-99 85-99zM99-20c44 1 53-31 53-75 0-43-8-75-51-75s-53 32-53 75 10 74 51 75zM76-211c8-23 27-35 38-54h36v5l-58 49H76" id="aw"/><g id="N"><use transform="matrix(0.05555555555555554,0,0,0.05555555555555554,0,0)" xlink:href="#ad"/><use transform="matrix(0.05555555555555554,0,0,0.05555555555555554,11.111111111111107,0)" xlink:href="#U"/><use transform="matrix(0.05555555555555554,0,0,0.05555555555555554,22.222222222222214,0)" xlink:href="#T"/><use transform="matrix(0.05555555555555554,0,0,0.05555555555555554,32.222222222222214,0)" xlink:href="#aj"/><use transform="matrix(0.05555555555555554,0,0,0.05555555555555554,43.33333333333332,0)" xlink:href="#am"/><use transform="matrix(0.05555555555555554,0,0,0.05555555555555554,59.94444444444443,0)" xlink:href="#Z"/><use transform="matrix(0.05555555555555554,0,0,0.05555555555555554,71.05555555555554,0)" xlink:href="#ah"/><use transform="matrix(0.05555555555555554,0,0,0.05555555555555554,82.16666666666666,0)" xlink:href="#Y"/><use transform="matrix(0.05555555555555554,0,0,0.05555555555555554,87.72222222222221,0)" xlink:href="#ab"/><use transform="matrix(0.05555555555555554,0,0,0.05555555555555554,98.83333333333331,0)" xlink:href="#T"/><use transform="matrix(0.05555555555555554,0,0,0.05555555555555554,108.83333333333331,0)" xlink:href="#W"/><use transform="matrix(0.05555555555555554,0,0,0.05555555555555554,113.2222222222222,0)" xlink:href="#aw"/></g><filter id="L" filterUnits="objectBoundingBox" x="-.06" y="-.07" width="1.11" height="1.33"><feOffset result="offOut" in="SourceAlpha" dy="6"/><feGaussianBlur result="blurOut" in="offOut" stdDeviation="5"/><feColorMatrix result="colorOut" in="blurOut" values="0 0 0 0 0 0 0 0 0 0 0 0 0 0 0 0 0 0 0.16862745098039217 0"/><feBlend in="SourceGraphic" in2="colorOut"/></filter></defs></g></svg>